SRRun01_grf
version=1
nRows=21
nColumns=19
inDegrees=no
endheader
time	ground_force_r_vx	ground_force_r_vy	ground_force_r_vz	ground_force_r_px	ground_force_r_py	ground_force_r_pz	ground_force_r_mx	ground_force_r_my	ground_force_r_mz	ground_force_l_vx	ground_force_l_vy	ground_force_l_vz	ground_force_l_px	ground_force_l_py	ground_force_l_pz	ground_force_l_mx	ground_force_l_my	ground_force_l_mz
    139.99600000	    -14.66957765	   1022.87117995	    -88.61645090	      0.92376257	      0.00000000	     -0.92869422	      0.00007319	    -10.82796562	      0.00005566	      0.00000000	      0.00000000	      0.00000000	      0.00000000	      0.00000000	      0.00000000	      0.00000000	      0.00000000	      0.00000000
    139.99700000	    -16.69791983	   1013.30523448	    -91.00406444	      0.92372222	      0.00000000	     -0.92672387	      0.00006720	     -7.85259487	      0.00005491	      0.00000000	      0.00000000	      0.00000000	      0.00000000	      0.00000000	      0.00000000	      0.00000000	      0.00000000	      0.00000000
    139.99800000	    -18.42907502	   1003.63018260	    -93.44067260	      0.92368029	      0.00000000	     -0.92466445	      0.00006136	     -5.05439742	      0.00005429	      0.00000000	      0.00000000	      0.00000000	      0.00000000	      0.00000000	      0.00000000	      0.00000000	      0.00000000	      0.00000000
    139.99900000	    -19.74406756	    993.91200945	    -95.90115153	      0.92363854	      0.00000000	     -0.92250795	      0.00005594	     -2.52854603	      0.00005371	      0.00000000	      0.00000000	      0.00000000	      0.00000000	      0.00000000	      0.00000000	      0.00000000	      0.00000000	      0.00000000
    140.00000000	    -20.54117182	    984.19664409	    -98.36775995	      0.92359923	      0.00000000	     -0.92025073	      0.00005118	     -0.36059785	      0.00005309	      0.00000000	      0.00000000	      0.00000000	      0.00000000	      0.00000000	      0.00000000	      0.00000000	      0.00000000	      0.00000000
    140.00100000	    -20.74565800	    974.50986967	   -100.83049839	      0.92356487	      0.00000000	     -0.91789520	      0.00004723	      1.37973504	      0.00005236	      0.00000000	      0.00000000	      0.00000000	      0.00000000	      0.00000000	      0.00000000	      0.00000000	      0.00000000	      0.00000000
    140.00200000	    -20.31826746	    964.85769279	   -103.28644498	      0.92353801	      0.00000000	     -0.91544990	      0.00004417	      2.64456619	      0.00005149	      0.00000000	      0.00000000	      0.00000000	      0.00000000	      0.00000000	      0.00000000	      0.00000000	      0.00000000	      0.00000000
    140.00300000	    -19.26142234	    955.22742746	   -105.73825311	      0.92352078	      0.00000000	     -0.91292825	      0.00004202	      3.41287383	      0.00005047	      0.00000000	      0.00000000	      0.00000000	      0.00000000	      0.00000000	      0.00000000	      0.00000000	      0.00000000	      0.00000000
    140.00400000	    -17.62226660	    945.58977304	   -108.19210155	      0.92351447	      0.00000000	     -0.91034589	      0.00004070	      3.69378497	      0.00004932	      0.00000000	      0.00000000	      0.00000000	      0.00000000	      0.00000000	      0.00000000	      0.00000000	      0.00000000	      0.00000000
    140.00500000	    -15.49186492	    935.90199259	   -110.65544435	      0.92351910	      0.00000000	     -0.90771743	      0.00004009	      3.52732630	      0.00004807	      0.00000000	      0.00000000	      0.00000000	      0.00000000	      0.00000000	      0.00000000	      0.00000000	      0.00000000	      0.00000000
    140.00600000	    -13.00025354	    926.11211148	   -113.13488333	      0.92353301	      0.00000000	     -0.90505342	      0.00004001	      2.98208627	      0.00004674	      0.00000000	      0.00000000	      0.00000000	      0.00000000	      0.00000000	      0.00000000	      0.00000000	      0.00000000	      0.00000000
    140.00700000	    -10.30752239	    916.16391597	   -115.63436967	      0.92355265	      0.00000000	     -0.90235827	      0.00004028	      2.14962205	      0.00004538	      0.00000000	      0.00000000	      0.00000000	      0.00000000	      0.00000000	      0.00000000	      0.00000000	      0.00000000	      0.00000000
    140.00800000	     -7.59163166	    906.00238819	   -118.15380481	      0.92357266	      0.00000000	     -0.89963000	      0.00004068	      1.13594142	      0.00004400	      0.00000000	      0.00000000	      0.00000000	      0.00000000	      0.00000000	      0.00000000	      0.00000000	      0.00000000	      0.00000000
    140.00900000	     -5.03409940	    895.57904611	   -120.68803884	      0.92358619	      0.00000000	     -0.89686187	      0.00004102	      0.05089510	      0.00004262	      0.00000000	      0.00000000	      0.00000000	      0.00000000	      0.00000000	      0.00000000	      0.00000000	      0.00000000	      0.00000000
    140.01000000	     -2.80492450	    884.85652524	   -123.22624251	      0.92358558	      0.00000000	     -0.89404563	      0.00004115	     -1.00329724	      0.00004125	      0.00000000	      0.00000000	      0.00000000	      0.00000000	      0.00000000	      0.00000000	      0.00000000	      0.00000000	      0.00000000
    140.01100000	     -1.04810757	    873.81176140	   -125.75158815	      0.92356314	      0.00000000	     -0.89117563	      0.00004095	     -1.94297343	      0.00003989	      0.00000000	      0.00000000	      0.00000000	      0.00000000	      0.00000000	      0.00000000	      0.00000000	      0.00000000	      0.00000000
    140.01200000	      0.13101308	    862.43738194	   -128.24112306	      0.92351211	      0.00000000	     -0.88825263	      0.00004036	     -2.71198942	      0.00003854	      0.00000000	      0.00000000	      0.00000000	      0.00000000	      0.00000000	      0.00000000	      0.00000000	      0.00000000	      0.00000000
    140.01300000	      0.67556894	    850.74133030	   -130.66573584	      0.92342753	      0.00000000	     -0.88528654	      0.00003937	     -3.28743828	      0.00003722	      0.00000000	      0.00000000	      0.00000000	      0.00000000	      0.00000000	      0.00000000	      0.00000000	      0.00000000	      0.00000000
    140.01400000	      0.58324799	    838.74517616	   -132.99024826	      0.92330697	      0.00000000	     -0.88229722	      0.00003803	     -3.68115467	      0.00003594	      0.00000000	      0.00000000	      0.00000000	      0.00000000	      0.00000000	      0.00000000	      0.00000000	      0.00000000	      0.00000000
    140.01500000	     -0.09197594	    826.48179888	   -135.17386565	      0.92315119	      0.00000000	     -0.87931327	      0.00003641	     -3.93652899	      0.00003472	      0.00000000	      0.00000000	      0.00000000	      0.00000000	      0.00000000	      0.00000000	      0.00000000	      0.00000000	      0.00000000
    140.01600000	     -1.24280857	    813.99303634	   -137.17136453	      0.92296458	      0.00000000	     -0.87636859	      0.00003462	     -4.12080606	      0.00003357	      0.00000000	      0.00000000	      0.00000000	      0.00000000	      0.00000000	      0.00000000	      0.00000000	      0.00000000	      0.00000000
